<svg width="28" height="31" viewBox="0 0 28 31" fill="none" xmlns="http://www.w3.org/2000/svg">
<path d="M14 0.304688C10.2885 0.308305 6.73009 1.61599 4.10551 3.94087C1.48093 6.26575 0.00445516 9.41797 0 12.706C0 15.8995 2.7913 20.8973 8.29676 27.5603C8.95217 28.3557 9.81032 29.0028 10.8014 29.4489C11.7924 29.895 12.8884 30.1276 14 30.1276C15.1116 30.1276 16.2076 29.895 17.1986 29.4489C18.1897 29.0028 19.0478 28.3557 19.7032 27.5603C25.2087 20.8973 28 15.8995 28 12.706C27.9955 9.41797 26.5191 6.26575 23.8945 3.94087C21.2699 1.61599 17.7115 0.308305 14 0.304688ZM14 17.6491C12.8903 17.6491 11.8056 17.3576 10.8829 16.8115C9.96022 16.2653 9.24108 15.489 8.81642 14.5808C8.39177 13.6726 8.28066 12.6732 8.49715 11.709C8.71363 10.7448 9.248 9.85915 10.0327 9.16402C10.8173 8.46889 11.8171 7.9955 12.9054 7.80371C13.9938 7.61192 15.1219 7.71035 16.1471 8.08656C17.1723 8.46276 18.0486 9.09984 18.6651 9.91723C19.2816 10.7346 19.6107 11.6956 19.6107 12.6787C19.6107 13.9969 19.0195 15.2612 17.9673 16.1933C16.9151 17.1255 15.488 17.6491 14 17.6491Z" fill="black"/>
</svg>
