<svg width="30" height="30" viewBox="0 0 30 30" fill="none" xmlns="http://www.w3.org/2000/svg">
<g clip-path="url(#clip0_11_1916)">
<path d="M15 0C12.0333 0 9.13319 0.879735 6.66645 2.52796C4.19972 4.17618 2.27713 6.51886 1.14181 9.25975C0.00649929 12.0006 -0.290551 15.0166 0.288228 17.9264C0.867006 20.8361 2.29562 23.5088 4.3934 25.6066C6.49119 27.7044 9.16394 29.133 12.0737 29.7118C14.9834 30.2906 17.9994 29.9935 20.7403 28.8582C23.4811 27.7229 25.8238 25.8003 27.472 23.3336C29.1203 20.8668 30 17.9667 30 15C29.9957 11.0231 28.414 7.21026 25.6019 4.39815C22.7897 1.58604 18.9769 0.00430135 15 0ZM15 26.25C12.775 26.25 10.5999 25.5902 8.74984 24.354C6.89979 23.1179 5.45785 21.3609 4.60636 19.3052C3.75488 17.2495 3.53209 14.9875 3.96617 12.8052C4.40026 10.6229 5.47171 8.61839 7.04505 7.04505C8.6184 5.47171 10.623 4.40025 12.8052 3.96617C14.9875 3.53208 17.2495 3.75487 19.3052 4.60636C21.3609 5.45784 23.1179 6.89978 24.354 8.74984C25.5902 10.5999 26.25 12.775 26.25 15C26.2467 17.9827 25.0604 20.8422 22.9513 22.9513C20.8422 25.0604 17.9827 26.2467 15 26.25Z" fill="black"/>
<path d="M13.125 13.8186L10.125 15.6936C9.91623 15.8243 9.73526 15.9949 9.59243 16.1955C9.4496 16.3962 9.3477 16.623 9.29257 16.8631C9.23743 17.1031 9.23013 17.3517 9.27108 17.5946C9.31203 17.8375 9.40044 18.0699 9.53125 18.2786C9.66195 18.4874 9.83251 18.6683 10.0332 18.8112C10.2338 18.954 10.4607 19.0559 10.7007 19.111C10.9408 19.1662 11.1894 19.1735 11.4322 19.1325C11.6751 19.0916 11.9075 19.0032 12.1163 18.8723L15.7025 16.6223C16.0623 16.3969 16.3588 16.0835 16.5639 15.7117C16.7691 15.3399 16.8761 14.922 16.875 14.4973V9.71484C16.875 9.21756 16.6775 8.74065 16.3258 8.38902C15.9742 8.03739 15.4973 7.83984 15 7.83984C14.5027 7.83984 14.0258 8.03739 13.6742 8.38902C13.3225 8.74065 13.125 9.21756 13.125 9.71484V13.8186Z" fill="black"/>
</g>
<defs>
<clipPath id="clip0_11_1916">
<rect width="30" height="30" fill="white"/>
</clipPath>
</defs>
</svg>
