<svg width="45" height="45" viewBox="0 0 45 45" fill="none" xmlns="http://www.w3.org/2000/svg">
<path d="M41.8425 3.1575C38.685 0 33.6019 0 23.4375 0H21.5625C11.3981 0 6.315 0 3.1575 3.1575C0 6.315 0 11.3981 0 21.5625V23.4375C0 33.6019 0 38.6831 3.1575 41.8425C6.315 45.0019 11.3981 45 21.5625 45H23.4375C33.6019 45 38.6831 45 41.8425 41.8425C45 38.685 45 33.6019 45 23.4375V21.5625C45 11.3981 45 6.315 41.8425 3.1575ZM36.5681 31.875H33.2869C32.0363 31.875 31.6688 30.8775 29.4431 28.6519C27.495 26.775 26.6606 26.5312 26.175 26.5312C25.5131 26.5312 25.3162 26.7188 25.3162 27.6562V30.5981C25.3162 31.4044 25.0594 31.875 22.9725 31.875C19.4963 31.875 15.675 29.7638 12.9619 25.8713C8.89313 20.1694 7.78125 15.8587 7.78125 14.9906C7.78125 14.5031 7.96875 14.0625 8.90625 14.0625H12.1894C13.0275 14.0625 13.3425 14.43 13.6575 15.3375C15.2625 20.0119 17.97 24.0975 19.0819 24.0975C19.4981 24.0975 19.6894 23.9044 19.6894 22.8469V18.015C19.5675 15.7912 18.3844 15.6075 18.3844 14.8162C18.3844 14.4506 18.6975 14.0625 19.2188 14.0625H24.3769C25.0725 14.0625 25.3144 14.4337 25.3144 15.2681V21.7687C25.3144 22.4625 25.6162 22.7062 25.8244 22.7062C26.2425 22.7062 26.5894 22.4625 27.3544 21.6975C29.7188 19.0556 31.3875 14.9887 31.3875 14.9887C31.5975 14.5013 31.98 14.0606 32.8162 14.0606H36.0975C37.0894 14.0606 37.2994 14.5706 37.0894 15.2663C36.6712 17.1788 32.6738 22.8094 32.6738 22.8094C32.325 23.3662 32.1863 23.6438 32.6738 24.27C33.0225 24.7575 34.1681 25.7306 34.9331 26.6344C36.3431 28.2206 37.4062 29.5575 37.7025 30.48C37.9762 31.4062 37.5056 31.875 36.5681 31.875Z" fill="black"/>
</svg>
