<svg width="45" height="46" viewBox="0 0 45 46" fill="none" xmlns="http://www.w3.org/2000/svg">
<path fill-rule="evenodd" clip-rule="evenodd" d="M38.4455 7.44035C34.2139 3.25024 28.5882 0.940829 22.5951 0.938965C10.2453 0.938965 0.194055 10.8812 0.188403 23.1048C0.186519 27.0116 1.21897 30.8252 3.18024 34.1877L0 45.6733L11.8769 42.5903C15.1495 44.3573 18.8346 45.2874 22.5838 45.2893H22.5933C34.9412 45.2893 44.9943 35.3452 45 23.1216C45.0038 17.1999 42.6751 11.6286 38.4455 7.44035ZM22.5951 41.5447H22.5876C19.2453 41.5447 15.969 40.6556 13.1091 38.9762L12.4289 38.5773L5.38078 40.4058L7.26293 33.6062L6.82018 32.9091C4.95499 29.9753 3.97153 26.5848 3.97341 23.1048C3.97718 12.9464 12.3328 4.68173 22.6046 4.68173C27.5784 4.68173 32.2546 6.60158 35.7701 10.0834C39.2857 13.5671 41.2206 18.1952 41.2188 23.1179C41.2131 33.28 32.8593 41.5447 22.5951 41.5447ZM32.8103 27.746C32.2508 27.4683 29.4982 26.1281 28.9839 25.9436C28.4714 25.759 28.0984 25.6658 27.7235 26.2194C27.3485 26.773 26.2784 28.0219 25.9506 28.3928C25.6247 28.7618 25.2968 28.8084 24.7373 28.5307C24.1777 28.253 22.3728 27.6696 20.2345 25.7814C18.5709 24.3126 17.4461 22.499 17.1202 21.9436C16.7942 21.3881 17.0862 21.0899 17.3651 20.814C17.6175 20.5661 17.9246 20.1673 18.2054 19.8429C18.488 19.5223 18.5803 19.2912 18.7687 18.9203C18.9552 18.5512 18.8629 18.2269 18.7216 17.9492C18.5803 17.6733 17.4612 14.9464 16.9958 13.8374C16.5418 12.7563 16.0802 12.9035 15.7354 12.8868C15.4095 12.87 15.0364 12.8681 14.6615 12.8681C14.2885 12.8681 13.6818 13.006 13.1694 13.5615C12.6569 14.1169 11.21 15.4571 11.21 18.1822C11.21 20.9091 13.2165 23.5428 13.4953 23.9119C13.7741 24.2809 17.4423 29.8765 23.0586 32.2753C24.3944 32.8457 25.4381 33.1868 26.2502 33.4422C27.5916 33.8634 28.8124 33.8038 29.7771 33.6621C30.8528 33.5037 33.0892 32.3219 33.5564 31.0284C34.0237 29.7348 34.0237 28.6239 33.8824 28.3946C33.7429 28.1616 33.3699 28.0237 32.8103 27.746Z" fill="black"/>
</svg>
