<svg width="21" height="21" viewBox="0 0 21 21" fill="none" xmlns="http://www.w3.org/2000/svg">
<rect x="1.25" y="2.53711" width="18.5" height="16.4341" rx="5.75" stroke="#1D281D" stroke-width="2.5"/>
<line x1="1.46484" y1="6.88013" x2="19.5346" y2="6.88013" stroke="#1D281D" stroke-width="2.5"/>
<line x1="5.24023" y1="2.74365" x2="5.24023" y2="0.31621" stroke="#1D281D" stroke-width="2.5"/>
<line x1="15.7305" y1="2.74365" x2="15.7305" y2="0.31621" stroke="#1D281D" stroke-width="2.5"/>
<rect x="5" y="9.58667" width="1.46512" height="1.45725" rx="0.7" fill="#C0D3C1"/>
<rect x="7.44238" y="9.58667" width="1.46512" height="1.45725" rx="0.7" fill="#C0D3C1"/>
<rect x="9.88379" y="9.58667" width="1.46512" height="1.45725" rx="0.7" fill="#C0D3C1"/>
<rect x="12.3262" y="9.58667" width="1.46512" height="1.45725" rx="0.7" fill="#C0D3C1"/>
<rect x="14.7676" y="9.58667" width="1.46512" height="1.45725" rx="0.7" fill="#C0D3C1"/>
<rect x="5" y="14.4414" width="1.46512" height="1.45725" rx="0.7" fill="#C0D3C1"/>
<rect x="7.44238" y="14.4414" width="1.46512" height="1.45725" rx="0.7" fill="#C0D3C1"/>
<rect x="9.88379" y="14.4414" width="1.46512" height="1.45725" rx="0.7" fill="#C0D3C1"/>
<rect x="12.3262" y="14.4414" width="1.46512" height="1.45725" rx="0.7" fill="#C0D3C1"/>
<rect x="14.7676" y="14.4414" width="1.46512" height="1.45725" rx="0.7" fill="#C0D3C1"/>
<rect x="5" y="12.0142" width="1.46512" height="1.45725" rx="0.7" fill="#C0D3C1"/>
<rect x="7.44238" y="12.0142" width="1.46512" height="1.45725" rx="0.7" fill="#C0D3C1"/>
<rect x="9.88379" y="12.0142" width="1.46512" height="1.45725" rx="0.7" fill="#C0D3C1"/>
<rect x="12.3262" y="12.0142" width="1.46512" height="1.45725" rx="0.7" fill="#C0D3C1"/>
<rect x="15" y="12" width="1.46512" height="1.45725" rx="0.7" fill="#C0D3C1"/>
</svg>
