<svg width="43" height="41" viewBox="0 0 43 41" fill="none" xmlns="http://www.w3.org/2000/svg">
<rect x="0.5" y="2.5" width="42" height="38" rx="6.5" stroke="#1D281D"/>
<line x1="3" y1="11.5" x2="40" y2="11.5" stroke="#1D281D"/>
<line x1="8.5" y1="5" x2="8.5" stroke="#1D281D"/>
<line x1="35.5" y1="5" x2="35.5" stroke="#1D281D"/>
<rect x="5" y="15" width="3" height="3" rx="0.7" fill="#C0D3C1"/>
<rect x="10" y="15" width="3" height="3" rx="0.7" fill="#C0D3C1"/>
<rect x="15" y="15" width="3" height="3" rx="0.7" fill="#C0D3C1"/>
<rect x="30" y="15" width="3" height="3" rx="0.7" fill="#C0D3C1"/>
<rect x="35" y="15" width="3" height="3" rx="0.7" fill="#C0D3C1"/>
<rect x="20" y="15" width="3" height="3" rx="0.7" fill="#C0D3C1"/>
<rect x="25" y="15" width="3" height="3" rx="0.7" fill="#C0D3C1"/>
<rect x="5" y="35" width="3" height="3" rx="0.7" fill="#C0D3C1"/>
<rect x="10" y="35" width="3" height="3" rx="0.7" fill="#C0D3C1"/>
<rect x="5" y="30" width="3" height="3" rx="0.7" fill="#C0D3C1"/>
<rect x="10" y="30" width="3" height="3" rx="0.7" fill="#C0D3C1"/>
<rect x="15" y="30" width="3" height="3" rx="0.7" fill="#C0D3C1"/>
<rect x="30" y="30" width="3" height="3" rx="0.7" fill="#C0D3C1"/>
<rect x="35" y="30" width="3" height="3" rx="0.7" fill="#C0D3C1"/>
<rect x="20" y="30" width="3" height="3" rx="0.7" fill="#C0D3C1"/>
<rect x="25" y="30" width="3" height="3" rx="0.7" fill="#C0D3C1"/>
<rect x="5" y="25" width="3" height="3" rx="0.7" fill="#C0D3C1"/>
<rect x="10" y="25" width="3" height="3" rx="0.7" fill="#C0D3C1"/>
<rect x="15" y="25" width="3" height="3" rx="0.7" fill="#C0D3C1"/>
<rect x="30" y="25" width="3" height="3" rx="0.7" fill="#C0D3C1"/>
<rect x="35" y="25" width="3" height="3" rx="0.7" fill="#C0D3C1"/>
<rect x="20" y="25" width="3" height="3" rx="0.7" fill="#C0D3C1"/>
<rect x="25" y="25" width="3" height="3" rx="0.7" fill="#C0D3C1"/>
<rect x="5" y="20" width="3" height="3" rx="0.7" fill="#C0D3C1"/>
<rect x="10" y="20" width="3" height="3" rx="0.7" fill="#C0D3C1"/>
<rect x="15" y="20" width="3" height="3" rx="0.7" fill="#C0D3C1"/>
<rect x="30" y="20" width="3" height="3" rx="0.7" fill="#C0D3C1"/>
<rect x="35" y="20" width="3" height="3" rx="0.7" fill="#C0D3C1"/>
<rect x="20" y="20" width="3" height="3" rx="0.7" fill="#C0D3C1"/>
<rect x="25" y="20" width="3" height="3" rx="0.7" fill="#C0D3C1"/>
</svg>
