<svg width="29" height="27" viewBox="0 0 29 27" fill="none" xmlns="http://www.w3.org/2000/svg">
<rect x="0.5" y="1.81689" width="27.3171" height="24.6829" rx="6.5" stroke="white"/>
<line x1="1.97559" y1="7.40234" x2="26.3414" y2="7.40234" stroke="white"/>
<line x1="5.427" y1="3.29248" x2="5.427" y2="-0.000202417" stroke="white"/>
<line x1="23.2073" y1="3.29248" x2="23.2073" y2="-0.000202417" stroke="white"/>
<mask id="path-5-inside-1_152_2739" fill="white">
<rect x="3.29272" y="9.87793" width="1.97561" height="1.97561" rx="0.7"/>
</mask>
<rect x="3.29272" y="9.87793" width="1.97561" height="1.97561" rx="0.7" fill="#C0D3C1" stroke="white" stroke-width="1.97561" mask="url(#path-5-inside-1_152_2739)"/>
<mask id="path-6-inside-2_152_2739" fill="white">
<rect x="6.58545" y="9.87793" width="1.97561" height="1.97561" rx="0.7"/>
</mask>
<rect x="6.58545" y="9.87793" width="1.97561" height="1.97561" rx="0.7" fill="#C0D3C1" stroke="white" stroke-width="1.97561" mask="url(#path-6-inside-2_152_2739)"/>
<mask id="path-7-inside-3_152_2739" fill="white">
<rect x="9.87817" y="9.87793" width="1.97561" height="1.97561" rx="0.7"/>
</mask>
<rect x="9.87817" y="9.87793" width="1.97561" height="1.97561" rx="0.7" fill="#C0D3C1" stroke="white" stroke-width="1.97561" mask="url(#path-7-inside-3_152_2739)"/>
<mask id="path-8-inside-4_152_2739" fill="white">
<rect x="19.7561" y="9.87793" width="1.97561" height="1.97561" rx="0.7"/>
</mask>
<rect x="19.7561" y="9.87793" width="1.97561" height="1.97561" rx="0.7" fill="#C0D3C1" stroke="white" stroke-width="1.97561" mask="url(#path-8-inside-4_152_2739)"/>
<mask id="path-9-inside-5_152_2739" fill="white">
<rect x="23.0488" y="9.87793" width="1.97561" height="1.97561" rx="0.7"/>
</mask>
<rect x="23.0488" y="9.87793" width="1.97561" height="1.97561" rx="0.7" fill="#C0D3C1" stroke="white" stroke-width="1.97561" mask="url(#path-9-inside-5_152_2739)"/>
<mask id="path-10-inside-6_152_2739" fill="white">
<rect x="13.1709" y="9.87793" width="1.97561" height="1.97561" rx="0.7"/>
</mask>
<rect x="13.1709" y="9.87793" width="1.97561" height="1.97561" rx="0.7" fill="#C0D3C1" stroke="white" stroke-width="1.97561" mask="url(#path-10-inside-6_152_2739)"/>
<mask id="path-11-inside-7_152_2739" fill="white">
<rect x="16.4634" y="9.87793" width="1.97561" height="1.97561" rx="0.7"/>
</mask>
<rect x="16.4634" y="9.87793" width="1.97561" height="1.97561" rx="0.7" fill="#C0D3C1" stroke="white" stroke-width="1.97561" mask="url(#path-11-inside-7_152_2739)"/>
<mask id="path-12-inside-8_152_2739" fill="white">
<rect x="3.29272" y="23.0488" width="1.97561" height="1.97561" rx="0.7"/>
</mask>
<rect x="3.29272" y="23.0488" width="1.97561" height="1.97561" rx="0.7" fill="#C0D3C1" stroke="white" stroke-width="1.97561" mask="url(#path-12-inside-8_152_2739)"/>
<mask id="path-13-inside-9_152_2739" fill="white">
<rect x="6.58545" y="23.0488" width="1.97561" height="1.97561" rx="0.7"/>
</mask>
<rect x="6.58545" y="23.0488" width="1.97561" height="1.97561" rx="0.7" fill="#C0D3C1" stroke="white" stroke-width="1.97561" mask="url(#path-13-inside-9_152_2739)"/>
<mask id="path-14-inside-10_152_2739" fill="white">
<rect x="3.29272" y="19.7559" width="1.97561" height="1.97561" rx="0.7"/>
</mask>
<rect x="3.29272" y="19.7559" width="1.97561" height="1.97561" rx="0.7" fill="#C0D3C1" stroke="white" stroke-width="1.97561" mask="url(#path-14-inside-10_152_2739)"/>
<mask id="path-15-inside-11_152_2739" fill="white">
<rect x="6.58545" y="19.7559" width="1.97561" height="1.97561" rx="0.7"/>
</mask>
<rect x="6.58545" y="19.7559" width="1.97561" height="1.97561" rx="0.7" fill="#C0D3C1" stroke="white" stroke-width="1.97561" mask="url(#path-15-inside-11_152_2739)"/>
<mask id="path-16-inside-12_152_2739" fill="white">
<rect x="9.87817" y="19.7559" width="1.97561" height="1.97561" rx="0.7"/>
</mask>
<rect x="9.87817" y="19.7559" width="1.97561" height="1.97561" rx="0.7" fill="#C0D3C1" stroke="white" stroke-width="1.97561" mask="url(#path-16-inside-12_152_2739)"/>
<mask id="path-17-inside-13_152_2739" fill="white">
<rect x="19.7561" y="19.7559" width="1.97561" height="1.97561" rx="0.7"/>
</mask>
<rect x="19.7561" y="19.7559" width="1.97561" height="1.97561" rx="0.7" fill="#C0D3C1" stroke="white" stroke-width="1.97561" mask="url(#path-17-inside-13_152_2739)"/>
<mask id="path-18-inside-14_152_2739" fill="white">
<rect x="23.0488" y="19.7559" width="1.97561" height="1.97561" rx="0.7"/>
</mask>
<rect x="23.0488" y="19.7559" width="1.97561" height="1.97561" rx="0.7" fill="#C0D3C1" stroke="white" stroke-width="1.97561" mask="url(#path-18-inside-14_152_2739)"/>
<mask id="path-19-inside-15_152_2739" fill="white">
<rect x="13.1709" y="19.7559" width="1.97561" height="1.97561" rx="0.7"/>
</mask>
<rect x="13.1709" y="19.7559" width="1.97561" height="1.97561" rx="0.7" fill="#C0D3C1" stroke="white" stroke-width="1.97561" mask="url(#path-19-inside-15_152_2739)"/>
<mask id="path-20-inside-16_152_2739" fill="white">
<rect x="16.4634" y="19.7559" width="1.97561" height="1.97561" rx="0.7"/>
</mask>
<rect x="16.4634" y="19.7559" width="1.97561" height="1.97561" rx="0.7" fill="#C0D3C1" stroke="white" stroke-width="1.97561" mask="url(#path-20-inside-16_152_2739)"/>
<mask id="path-21-inside-17_152_2739" fill="white">
<rect x="3.29272" y="16.4634" width="1.97561" height="1.97561" rx="0.7"/>
</mask>
<rect x="3.29272" y="16.4634" width="1.97561" height="1.97561" rx="0.7" fill="#C0D3C1" stroke="white" stroke-width="1.97561" mask="url(#path-21-inside-17_152_2739)"/>
<mask id="path-22-inside-18_152_2739" fill="white">
<rect x="6.58545" y="16.4634" width="1.97561" height="1.97561" rx="0.7"/>
</mask>
<rect x="6.58545" y="16.4634" width="1.97561" height="1.97561" rx="0.7" fill="#C0D3C1" stroke="white" stroke-width="1.97561" mask="url(#path-22-inside-18_152_2739)"/>
<mask id="path-23-inside-19_152_2739" fill="white">
<rect x="9.87817" y="16.4634" width="1.97561" height="1.97561" rx="0.7"/>
</mask>
<rect x="9.87817" y="16.4634" width="1.97561" height="1.97561" rx="0.7" fill="#C0D3C1" stroke="white" stroke-width="1.97561" mask="url(#path-23-inside-19_152_2739)"/>
<mask id="path-24-inside-20_152_2739" fill="white">
<rect x="19.7561" y="16.4634" width="1.97561" height="1.97561" rx="0.7"/>
</mask>
<rect x="19.7561" y="16.4634" width="1.97561" height="1.97561" rx="0.7" fill="#C0D3C1" stroke="white" stroke-width="1.97561" mask="url(#path-24-inside-20_152_2739)"/>
<mask id="path-25-inside-21_152_2739" fill="white">
<rect x="23.0488" y="16.4634" width="1.97561" height="1.97561" rx="0.7"/>
</mask>
<rect x="23.0488" y="16.4634" width="1.97561" height="1.97561" rx="0.7" fill="#C0D3C1" stroke="white" stroke-width="1.97561" mask="url(#path-25-inside-21_152_2739)"/>
<mask id="path-26-inside-22_152_2739" fill="white">
<rect x="13.1709" y="16.4634" width="1.97561" height="1.97561" rx="0.7"/>
</mask>
<rect x="13.1709" y="16.4634" width="1.97561" height="1.97561" rx="0.7" fill="#C0D3C1" stroke="white" stroke-width="1.97561" mask="url(#path-26-inside-22_152_2739)"/>
<mask id="path-27-inside-23_152_2739" fill="white">
<rect x="16.4634" y="16.4634" width="1.97561" height="1.97561" rx="0.7"/>
</mask>
<rect x="16.4634" y="16.4634" width="1.97561" height="1.97561" rx="0.7" fill="#C0D3C1" stroke="white" stroke-width="1.97561" mask="url(#path-27-inside-23_152_2739)"/>
<mask id="path-28-inside-24_152_2739" fill="white">
<rect x="3.29272" y="13.1704" width="1.97561" height="1.97561" rx="0.7"/>
</mask>
<rect x="3.29272" y="13.1704" width="1.97561" height="1.97561" rx="0.7" fill="#C0D3C1" stroke="white" stroke-width="1.97561" mask="url(#path-28-inside-24_152_2739)"/>
<mask id="path-29-inside-25_152_2739" fill="white">
<rect x="6.58545" y="13.1704" width="1.97561" height="1.97561" rx="0.7"/>
</mask>
<rect x="6.58545" y="13.1704" width="1.97561" height="1.97561" rx="0.7" fill="#C0D3C1" stroke="white" stroke-width="1.97561" mask="url(#path-29-inside-25_152_2739)"/>
<mask id="path-30-inside-26_152_2739" fill="white">
<rect x="9.87817" y="13.1704" width="1.97561" height="1.97561" rx="0.7"/>
</mask>
<rect x="9.87817" y="13.1704" width="1.97561" height="1.97561" rx="0.7" fill="#C0D3C1" stroke="white" stroke-width="1.97561" mask="url(#path-30-inside-26_152_2739)"/>
<mask id="path-31-inside-27_152_2739" fill="white">
<rect x="19.7561" y="13.1704" width="1.97561" height="1.97561" rx="0.7"/>
</mask>
<rect x="19.7561" y="13.1704" width="1.97561" height="1.97561" rx="0.7" fill="#C0D3C1" stroke="white" stroke-width="1.97561" mask="url(#path-31-inside-27_152_2739)"/>
<mask id="path-32-inside-28_152_2739" fill="white">
<rect x="23.0488" y="13.1704" width="1.97561" height="1.97561" rx="0.7"/>
</mask>
<rect x="23.0488" y="13.1704" width="1.97561" height="1.97561" rx="0.7" fill="#C0D3C1" stroke="white" stroke-width="1.97561" mask="url(#path-32-inside-28_152_2739)"/>
<mask id="path-33-inside-29_152_2739" fill="white">
<rect x="13.1709" y="13.1704" width="1.97561" height="1.97561" rx="0.7"/>
</mask>
<rect x="13.1709" y="13.1704" width="1.97561" height="1.97561" rx="0.7" fill="#C0D3C1" stroke="white" stroke-width="1.97561" mask="url(#path-33-inside-29_152_2739)"/>
<mask id="path-34-inside-30_152_2739" fill="white">
<rect x="16.4634" y="13.1704" width="1.97561" height="1.97561" rx="0.7"/>
</mask>
<rect x="16.4634" y="13.1704" width="1.97561" height="1.97561" rx="0.7" fill="#C0D3C1" stroke="white" stroke-width="1.97561" mask="url(#path-34-inside-30_152_2739)"/>
</svg>
