<svg width="38" height="36" viewBox="0 0 38 36" fill="none" xmlns="http://www.w3.org/2000/svg">
<path d="M9 12.8606L12 27.9344" stroke="#1D281D" stroke-width="0.8" stroke-linecap="round"/>
<path d="M13.6797 11.8557L14.9808 27.1723" stroke="#1D281D" stroke-width="0.8" stroke-linecap="round"/>
<path d="M36.6429 6.26839L30.2212 33.429C30.0078 34.3314 29.2022 34.9688 28.2749 34.9688H9.72513C8.79784 34.9688 7.99215 34.3314 7.77879 33.429L1.35714 6.26839M36.6429 6.26839H1.35714M36.6429 6.26839V6.26839C37.1452 6.26839 37.3977 5.66185 37.0437 5.30539L35.6866 3.9387C35.43 3.68032 35.0809 3.53501 34.7168 3.53501H21.7143M1.35714 6.26839V6.26839C0.854793 6.26839 0.602308 5.66184 0.956276 5.30539L2.31342 3.9387C2.56999 3.68032 2.91907 3.53501 3.28319 3.53501H16.2857M16.2857 3.53501V2.80164C16.2857 1.69707 17.1811 0.801636 18.2857 0.801636H19.7143C20.8189 0.801636 21.7143 1.69707 21.7143 2.80164V3.53501M16.2857 3.53501H21.7143" stroke="#1D281D" stroke-width="0.8"/>
<path d="M19 10.8491L18.9901 26.2214" stroke="#1D281D" stroke-width="0.8" stroke-linecap="round"/>
<path d="M28.6611 12.8606L25.6611 27.9344" stroke="#1D281D" stroke-width="0.8" stroke-linecap="round"/>
<path d="M23.9814 11.8557L22.6803 27.1723" stroke="#1D281D" stroke-width="0.8" stroke-linecap="round"/>
</svg>
