<svg width="28" height="28" viewBox="0 0 28 28" fill="none" xmlns="http://www.w3.org/2000/svg">
<path d="M6.63184 10.1855L8.84236 21.6671" stroke="white" stroke-width="0.8" stroke-linecap="round"/>
<path d="M10.0801 9.41992L11.0388 21.0865" stroke="white" stroke-width="0.8" stroke-linecap="round"/>
<path d="M27 5.16399L22.3554 25.4709C22.1475 26.3801 21.3386 27.0249 20.4058 27.0249H7.59421C6.66144 27.0249 5.85253 26.3801 5.64455 25.4709L1 5.16399M27 5.16399H1M27 5.16399V5.16399C27.3754 5.16399 27.5673 4.71358 27.3072 4.44282L26.3072 3.40183C26.1109 3.19749 25.8398 3.08199 25.5565 3.08199H16M1 5.16399V5.16399C0.624561 5.16399 0.432673 4.71358 0.692764 4.44282L1.69276 3.40183C1.88905 3.19749 2.16015 3.08199 2.44349 3.08199H12M12 3.08199V3C12 1.89543 12.8954 1 14 1V1C15.1046 1 16 1.89543 16 3V3.08199M12 3.08199H16" stroke="white" stroke-width="0.8"/>
<path d="M14 8.65332L13.9927 20.3623" stroke="white" stroke-width="0.8" stroke-linecap="round"/>
<path d="M21.1189 10.1855L18.9084 21.6671" stroke="white" stroke-width="0.8" stroke-linecap="round"/>
<path d="M17.6707 9.41992L16.7119 21.0865" stroke="white" stroke-width="0.8" stroke-linecap="round"/>
</svg>
