<svg width="60" height="63" viewBox="0 0 60 63" fill="none" xmlns="http://www.w3.org/2000/svg">
<g filter="url(#filter0_f_11_1504)">
<path d="M36.0403 19.312C33.8563 18.472 31.7923 18.052 29.8483 18.052C27.9283 18.052 26.4283 18.46 25.3483 19.276C24.2683 20.092 23.7283 21.22 23.7283 22.66C23.7283 24.412 24.6403 25.768 26.4643 26.728C27.2803 27.136 28.1683 27.52 29.1283 27.88C30.1123 28.216 31.0963 28.6 32.0803 29.032C33.0643 29.464 33.9643 29.956 34.7803 30.508C35.5963 31.06 36.2563 31.828 36.7603 32.812C37.2643 33.772 37.5163 35.008 37.5163 36.52C37.5163 38.008 37.0963 39.28 36.2563 40.336C35.4163 41.392 34.3963 42.112 33.1963 42.496C32.0203 42.856 30.6403 43.036 29.0563 43.036C26.1043 43.036 23.5843 42.304 21.4963 40.84L21.6763 40.552C22.4683 41.176 23.4883 41.692 24.7363 42.1C26.0083 42.484 27.3043 42.676 28.6243 42.676C30.5683 42.676 32.2243 42.232 33.5923 41.344C34.9843 40.432 35.6803 39.1 35.6803 37.348C35.6803 35.428 34.7683 33.928 32.9443 32.848C32.1283 32.368 31.2283 31.924 30.2443 31.516C29.2843 31.108 28.3123 30.688 27.3283 30.256C26.3443 29.8 25.4443 29.296 24.6283 28.744C22.8043 27.544 21.8923 25.84 21.8923 23.632C21.8923 21.88 22.4803 20.464 23.6563 19.384C24.8323 18.28 26.5963 17.728 28.9483 17.728C31.3243 17.728 33.7363 18.136 36.1843 18.952L36.0403 19.312Z" fill="white"/>
<circle cx="4.40739" cy="58.3625" r="0.407389" fill="white"/>
<circle cx="23.6451" cy="57.504" r="0.271593" fill="white"/>
<circle cx="41.9325" cy="7.07646" r="0.271593" fill="white"/>
<circle cx="30.2994" cy="55.7373" r="0.316858" fill="white"/>
<path d="M44.5803 10.9809C50.7964 15.7405 54.1489 23.0444 55.0074 31.8167C55.5827 37.6952 53.5364 44.7046 48.5882 49.9049C45.1757 53.4914 40.3669 56.2335 34.049 57.1372C45.1325 54.406 53.9538 46.4365 54.473 35.4254C54.9418 25.4828 50.473 16.6112 44.5803 10.9809Z" fill="white" stroke="white"/>
<path d="M21.7639 6.73106C25.2366 5.15162 28.9445 4.34301 32.5219 4.5253C27.4717 4.53302 22.9498 6.31038 19.192 9.01698C13.3299 13.2391 9.30825 19.7317 7.98372 25.3309C6.65971 30.9279 7.30415 37.8701 10.6019 43.8096C13.0522 48.2229 16.9619 52.0718 22.5907 54.4013C19.5379 53.569 16.9062 52.1657 14.6787 50.3637L14.5052 50.2233L14.2848 50.2588C12.0828 50.6132 10.4222 51.6229 8.7528 53.1347C8.84654 52.9291 8.93481 52.7213 9.01758 52.5106C9.8054 50.5044 10.0802 48.2706 9.91158 45.2077L9.90418 45.0732L9.83022 44.9606C5.00305 37.6132 4.93552 29.1007 7.52601 21.7221C9.83285 15.1515 15.3556 9.64565 21.7639 6.73106Z" fill="white" stroke="white"/>
<mask id="path-8-inside-1_11_1504" fill="white">
<path d="M26.588 7.62102C33.7242 6.27961 37.8973 7.50731 43.5172 12.8268C37.5384 7.90429 33.8442 6.76002 26.588 7.62102Z"/>
</mask>
<path d="M26.588 7.62102C33.7242 6.27961 37.8973 7.50731 43.5172 12.8268C37.5384 7.90429 33.8442 6.76002 26.588 7.62102Z" fill="white"/>
<path d="M26.588 7.62102L26.4032 6.63823L26.7058 8.61405L26.588 7.62102ZM43.5172 12.8268L42.8816 13.5988L44.2047 12.1005L43.5172 12.8268ZM26.7727 8.60381C30.2543 7.94937 32.9036 7.943 35.3296 8.6826C37.7605 9.42372 40.0767 10.9472 42.8298 13.553L44.2047 12.1005C41.3378 9.38694 38.7575 7.63679 35.9128 6.76953C33.0632 5.90077 30.0579 5.95126 26.4032 6.63823L26.7727 8.60381ZM44.1529 12.0548C41.1217 9.55917 38.5851 7.94895 35.8259 7.09937C33.0602 6.2478 30.1659 6.18946 26.4701 6.62798L26.7058 8.61405C30.2663 8.19158 32.8472 8.27487 35.2374 9.01081C37.634 9.74874 39.9339 11.1719 42.8816 13.5988L44.1529 12.0548Z" fill="white" mask="url(#path-8-inside-1_11_1504)"/>
<mask id="path-10-inside-2_11_1504" fill="white">
<path d="M45.4288 49.64C38.1457 54.7383 32.8711 55.4752 23.9173 52.3782C33.071 54.8512 37.7693 54.263 45.4288 49.64Z"/>
</mask>
<path d="M45.4288 49.64C38.1457 54.7383 32.8711 55.4752 23.9173 52.3782C33.071 54.8512 37.7693 54.263 45.4288 49.64Z" fill="white"/>
<path d="M45.4288 49.64L46.0023 50.4593L44.9121 48.7839L45.4288 49.64ZM23.9173 52.3782L24.1781 51.4128L23.5904 53.3232L23.9173 52.3782ZM44.8553 48.8208C41.2859 51.3194 38.2996 52.6847 35.1709 53.0906C32.0371 53.4972 28.647 52.956 24.2441 51.4331L23.5904 53.3232C28.1413 54.8973 31.8655 55.5362 35.4282 55.074C38.9961 54.6111 42.2886 53.0589 46.0023 50.4593L44.8553 48.8208ZM23.6564 53.3436C28.2855 54.5942 31.8949 55.1018 35.3593 54.6621C38.8304 54.2216 42.0575 52.8429 45.9455 50.4962L44.9121 48.7839C41.1407 51.0602 38.1888 52.287 35.1075 52.6781C32.0195 53.07 28.7028 52.6352 24.1781 51.4128L23.6564 53.3436Z" fill="white" mask="url(#path-10-inside-2_11_1504)"/>
</g>
<path d="M37.0403 19.312C34.8563 18.472 32.7923 18.052 30.8483 18.052C28.9283 18.052 27.4283 18.46 26.3483 19.276C25.2683 20.092 24.7283 21.22 24.7283 22.66C24.7283 24.412 25.6403 25.768 27.4643 26.728C28.2803 27.136 29.1683 27.52 30.1283 27.88C31.1123 28.216 32.0963 28.6 33.0803 29.032C34.0643 29.464 34.9643 29.956 35.7803 30.508C36.5963 31.06 37.2563 31.828 37.7603 32.812C38.2643 33.772 38.5163 35.008 38.5163 36.52C38.5163 38.008 38.0963 39.28 37.2563 40.336C36.4163 41.392 35.3963 42.112 34.1963 42.496C33.0203 42.856 31.6403 43.036 30.0563 43.036C27.1043 43.036 24.5843 42.304 22.4963 40.84L22.6763 40.552C23.4683 41.176 24.4883 41.692 25.7363 42.1C27.0083 42.484 28.3043 42.676 29.6243 42.676C31.5683 42.676 33.2243 42.232 34.5923 41.344C35.9843 40.432 36.6803 39.1 36.6803 37.348C36.6803 35.428 35.7683 33.928 33.9443 32.848C33.1283 32.368 32.2283 31.924 31.2443 31.516C30.2843 31.108 29.3123 30.688 28.3283 30.256C27.3443 29.8 26.4443 29.296 25.6283 28.744C23.8043 27.544 22.8923 25.84 22.8923 23.632C22.8923 21.88 23.4803 20.464 24.6563 19.384C25.8323 18.28 27.5963 17.728 29.9483 17.728C32.3243 17.728 34.7363 18.136 37.1843 18.952L37.0403 19.312Z" fill="white"/>
<circle cx="5.40739" cy="58.3625" r="0.407389" fill="white"/>
<circle cx="24.6451" cy="57.504" r="0.271593" fill="white"/>
<circle cx="42.9325" cy="7.07646" r="0.271593" fill="white"/>
<circle cx="31.2994" cy="55.7373" r="0.316858" fill="white"/>
<path d="M45.5803 10.9809C51.7964 15.7405 55.1489 23.0444 56.0074 31.8167C56.5827 37.6952 54.5364 44.7046 49.5882 49.9049C46.1757 53.4914 41.3669 56.2335 35.049 57.1372C46.1325 54.406 54.9538 46.4365 55.473 35.4254C55.9418 25.4828 51.473 16.6112 45.5803 10.9809Z" fill="white" stroke="white"/>
<path d="M22.7639 6.73106C26.2366 5.15162 29.9445 4.34301 33.5219 4.5253C28.4717 4.53302 23.9498 6.31038 20.192 9.01698C14.3299 13.2391 10.3082 19.7317 8.98372 25.3309C7.65971 30.9279 8.30415 37.8701 11.6019 43.8096C14.0522 48.2229 17.9619 52.0718 23.5907 54.4013C20.5379 53.569 17.9062 52.1657 15.6787 50.3637L15.5052 50.2233L15.2848 50.2588C13.0828 50.6132 11.4222 51.6229 9.7528 53.1347C9.84654 52.9291 9.93481 52.7213 10.0176 52.5106C10.8054 50.5044 11.0802 48.2706 10.9116 45.2077L10.9042 45.0732L10.8302 44.9606C6.00305 37.6132 5.93552 29.1007 8.52601 21.7221C10.8329 15.1515 16.3556 9.64565 22.7639 6.73106Z" fill="white" stroke="white"/>
<mask id="path-19-inside-3_11_1504" fill="white">
<path d="M27.588 7.62102C34.7242 6.27961 38.8973 7.50731 44.5172 12.8268C38.5384 7.90429 34.8442 6.76002 27.588 7.62102Z"/>
</mask>
<path d="M27.588 7.62102C34.7242 6.27961 38.8973 7.50731 44.5172 12.8268C38.5384 7.90429 34.8442 6.76002 27.588 7.62102Z" fill="white"/>
<path d="M27.588 7.62102L27.4032 6.63823L27.7058 8.61405L27.588 7.62102ZM44.5172 12.8268L43.8816 13.5988L45.2047 12.1005L44.5172 12.8268ZM27.7727 8.60381C31.2543 7.94937 33.9036 7.943 36.3296 8.6826C38.7605 9.42372 41.0767 10.9472 43.8298 13.553L45.2047 12.1005C42.3378 9.38694 39.7575 7.63679 36.9128 6.76953C34.0632 5.90077 31.0579 5.95126 27.4032 6.63823L27.7727 8.60381ZM45.1529 12.0548C42.1217 9.55917 39.5851 7.94895 36.8259 7.09937C34.0602 6.2478 31.1659 6.18946 27.4701 6.62798L27.7058 8.61405C31.2663 8.19158 33.8472 8.27487 36.2374 9.01081C38.634 9.74874 40.9339 11.1719 43.8816 13.5988L45.1529 12.0548Z" fill="white" mask="url(#path-19-inside-3_11_1504)"/>
<mask id="path-21-inside-4_11_1504" fill="white">
<path d="M46.4288 49.64C39.1457 54.7383 33.8711 55.4752 24.9173 52.3782C34.071 54.8512 38.7693 54.263 46.4288 49.64Z"/>
</mask>
<path d="M46.4288 49.64C39.1457 54.7383 33.8711 55.4752 24.9173 52.3782C34.071 54.8512 38.7693 54.263 46.4288 49.64Z" fill="white"/>
<path d="M46.4288 49.64L47.0023 50.4593L45.9121 48.7839L46.4288 49.64ZM24.9173 52.3782L25.1781 51.4128L24.5904 53.3232L24.9173 52.3782ZM45.8553 48.8208C42.2859 51.3194 39.2996 52.6847 36.1709 53.0906C33.0371 53.4972 29.647 52.956 25.2441 51.4331L24.5904 53.3232C29.1413 54.8973 32.8655 55.5362 36.4282 55.074C39.9961 54.6111 43.2886 53.0589 47.0023 50.4593L45.8553 48.8208ZM24.6564 53.3436C29.2855 54.5942 32.8949 55.1018 36.3593 54.6621C39.8304 54.2216 43.0575 52.8429 46.9455 50.4962L45.9121 48.7839C42.1407 51.0602 39.1888 52.287 36.1075 52.6781C33.0195 53.07 29.7028 52.6352 25.1781 51.4128L24.6564 53.3436Z" fill="white" mask="url(#path-21-inside-4_11_1504)"/>
<defs>
<filter id="filter0_f_11_1504" x="0" y="0" width="59.6017" height="62.7698" filterUnits="userSpaceOnUse" color-interpolation-filters="sRGB">
<feFlood flood-opacity="0" result="BackgroundImageFix"/>
<feBlend mode="normal" in="SourceGraphic" in2="BackgroundImageFix" result="shape"/>
<feGaussianBlur stdDeviation="2" result="effect1_foregroundBlur_11_1504"/>
</filter>
</defs>
</svg>
