<svg width="720" height="236" viewBox="0 0 720 236" fill="none" xmlns="http://www.w3.org/2000/svg">
<path d="M246.627 66.56C235.707 62.36 225.387 60.26 215.667 60.26C206.067 60.26 198.567 62.3 193.167 66.38C187.767 70.46 185.067 76.1 185.067 83.3C185.067 92.06 189.627 98.84 198.747 103.64C202.827 105.68 207.267 107.6 212.067 109.4C216.987 111.08 221.907 113 226.827 115.16C231.747 117.32 236.247 119.78 240.327 122.54C244.407 125.3 247.707 129.14 250.227 134.06C252.747 138.86 254.007 145.04 254.007 152.6C254.007 160.04 251.907 166.4 247.707 171.68C243.507 176.96 238.407 180.56 232.407 182.48C226.527 184.28 219.627 185.18 211.707 185.18C196.947 185.18 184.347 181.52 173.907 174.2L174.807 172.76C178.767 175.88 183.867 178.46 190.107 180.5C196.467 182.42 202.947 183.38 209.547 183.38C219.267 183.38 227.547 181.16 234.387 176.72C241.347 172.16 244.827 165.5 244.827 156.74C244.827 147.14 240.267 139.64 231.147 134.24C227.067 131.84 222.567 129.62 217.647 127.58C212.847 125.54 207.987 123.44 203.067 121.28C198.147 119 193.647 116.48 189.567 113.72C180.447 107.72 175.887 99.2 175.887 88.16C175.887 79.4 178.827 72.32 184.707 66.92C190.587 61.4 199.407 58.64 211.167 58.64C223.047 58.64 235.107 60.68 247.347 64.76L246.627 66.56ZM279.684 141.08C279.684 155.96 282.264 166.88 287.424 173.84C292.704 180.8 299.604 184.28 308.124 184.28C320.124 184.28 330.804 182.48 340.164 178.88L340.704 180.14C331.104 183.86 320.244 185.72 308.124 185.72C296.124 185.72 286.344 182.12 278.784 174.92C271.224 167.72 267.444 156.62 267.444 141.62C267.444 126.62 271.404 114.98 279.324 106.7C287.244 98.42 297.324 94.28 309.564 94.28C319.404 94.28 327.684 97.22 334.404 103.1C341.124 108.98 344.484 117.68 344.484 129.2C344.484 129.8 344.484 130.4 344.484 131H280.224C279.864 134.24 279.684 137.6 279.684 141.08ZM332.244 129.56C332.124 118.04 329.904 109.52 325.584 104C321.264 98.48 315.684 95.72 308.844 95.72C302.004 95.72 295.884 98.72 290.484 104.72C285.204 110.72 281.844 119 280.404 129.56H332.244ZM357.268 143.24C357.268 127.64 361.048 115.58 368.608 107.06C376.168 98.54 387.508 94.28 402.628 94.28C409.708 94.28 416.848 96.08 424.048 99.68V50.18H436.648V172.22C436.648 175.7 437.308 178.4 438.628 180.32C440.068 182.12 441.508 183.08 442.948 183.2L444.928 183.56H450.508V185H439.528C434.608 185 430.828 183.92 428.188 181.76C425.668 179.6 424.348 177.44 424.228 175.28L424.048 172.22V169.34C421.768 173.54 417.988 177.26 412.708 180.5C407.428 183.74 401.188 185.36 393.988 185.36C369.508 184.76 357.268 170.72 357.268 143.24ZM394.168 183.92C402.208 183.92 409.108 181.76 414.868 177.44C420.628 173.12 423.688 168.86 424.048 164.66V101.3C415.528 97.58 408.208 95.72 402.088 95.72C391.408 95.72 383.368 99.92 377.968 108.32C372.568 116.6 369.868 128.24 369.868 143.24C369.868 170.36 377.968 183.92 394.168 183.92ZM477.446 164.3C477.446 173.78 479.966 179.84 485.006 182.48C487.406 183.68 490.466 184.28 494.186 184.28C501.746 184.28 508.466 181.4 514.346 175.64C520.346 169.88 523.586 164.54 524.066 159.62V95H536.666V172.22C536.666 175.7 537.326 178.4 538.646 180.32C540.086 182.12 541.526 183.08 542.966 183.2L544.946 183.56H550.526V185H539.546C534.626 185 530.846 183.92 528.206 181.76C525.686 179.6 524.366 177.44 524.246 175.28L524.066 172.22V164.48C521.906 169.64 518.066 174.5 512.546 179.06C507.026 183.5 500.966 185.72 494.366 185.72C487.886 185.72 482.546 185.12 478.346 183.92C474.266 182.6 471.326 180.8 469.526 178.52C466.406 174.8 464.846 170 464.846 164.12V95H477.446V164.3Z" fill="white"/>
<g filter="url(#filter0_f_2084_15)">
<path d="M246.627 66.56C235.707 62.36 225.387 60.26 215.667 60.26C206.067 60.26 198.567 62.3 193.167 66.38C187.767 70.46 185.067 76.1 185.067 83.3C185.067 92.06 189.627 98.84 198.747 103.64C202.827 105.68 207.267 107.6 212.067 109.4C216.987 111.08 221.907 113 226.827 115.16C231.747 117.32 236.247 119.78 240.327 122.54C244.407 125.3 247.707 129.14 250.227 134.06C252.747 138.86 254.007 145.04 254.007 152.6C254.007 160.04 251.907 166.4 247.707 171.68C243.507 176.96 238.407 180.56 232.407 182.48C226.527 184.28 219.627 185.18 211.707 185.18C196.947 185.18 184.347 181.52 173.907 174.2L174.807 172.76C178.767 175.88 183.867 178.46 190.107 180.5C196.467 182.42 202.947 183.38 209.547 183.38C219.267 183.38 227.547 181.16 234.387 176.72C241.347 172.16 244.827 165.5 244.827 156.74C244.827 147.14 240.267 139.64 231.147 134.24C227.067 131.84 222.567 129.62 217.647 127.58C212.847 125.54 207.987 123.44 203.067 121.28C198.147 119 193.647 116.48 189.567 113.72C180.447 107.72 175.887 99.2 175.887 88.16C175.887 79.4 178.827 72.32 184.707 66.92C190.587 61.4 199.407 58.64 211.167 58.64C223.047 58.64 235.107 60.68 247.347 64.76L246.627 66.56ZM279.684 141.08C279.684 155.96 282.264 166.88 287.424 173.84C292.704 180.8 299.604 184.28 308.124 184.28C320.124 184.28 330.804 182.48 340.164 178.88L340.704 180.14C331.104 183.86 320.244 185.72 308.124 185.72C296.124 185.72 286.344 182.12 278.784 174.92C271.224 167.72 267.444 156.62 267.444 141.62C267.444 126.62 271.404 114.98 279.324 106.7C287.244 98.42 297.324 94.28 309.564 94.28C319.404 94.28 327.684 97.22 334.404 103.1C341.124 108.98 344.484 117.68 344.484 129.2C344.484 129.8 344.484 130.4 344.484 131H280.224C279.864 134.24 279.684 137.6 279.684 141.08ZM332.244 129.56C332.124 118.04 329.904 109.52 325.584 104C321.264 98.48 315.684 95.72 308.844 95.72C302.004 95.72 295.884 98.72 290.484 104.72C285.204 110.72 281.844 119 280.404 129.56H332.244ZM357.268 143.24C357.268 127.64 361.048 115.58 368.608 107.06C376.168 98.54 387.508 94.28 402.628 94.28C409.708 94.28 416.848 96.08 424.048 99.68V50.18H436.648V172.22C436.648 175.7 437.308 178.4 438.628 180.32C440.068 182.12 441.508 183.08 442.948 183.2L444.928 183.56H450.508V185H439.528C434.608 185 430.828 183.92 428.188 181.76C425.668 179.6 424.348 177.44 424.228 175.28L424.048 172.22V169.34C421.768 173.54 417.988 177.26 412.708 180.5C407.428 183.74 401.188 185.36 393.988 185.36C369.508 184.76 357.268 170.72 357.268 143.24ZM394.168 183.92C402.208 183.92 409.108 181.76 414.868 177.44C420.628 173.12 423.688 168.86 424.048 164.66V101.3C415.528 97.58 408.208 95.72 402.088 95.72C391.408 95.72 383.368 99.92 377.968 108.32C372.568 116.6 369.868 128.24 369.868 143.24C369.868 170.36 377.968 183.92 394.168 183.92ZM477.446 164.3C477.446 173.78 479.966 179.84 485.006 182.48C487.406 183.68 490.466 184.28 494.186 184.28C501.746 184.28 508.466 181.4 514.346 175.64C520.346 169.88 523.586 164.54 524.066 159.62V95H536.666V172.22C536.666 175.7 537.326 178.4 538.646 180.32C540.086 182.12 541.526 183.08 542.966 183.2L544.946 183.56H550.526V185H539.546C534.626 185 530.846 183.92 528.206 181.76C525.686 179.6 524.366 177.44 524.246 175.28L524.066 172.22V164.48C521.906 169.64 518.066 174.5 512.546 179.06C507.026 183.5 500.966 185.72 494.366 185.72C487.886 185.72 482.546 185.12 478.346 183.92C474.266 182.6 471.326 180.8 469.526 178.52C466.406 174.8 464.846 170 464.846 164.12V95H477.446V164.3Z" fill="white"/>
</g>
<g filter="url(#filter1_f_2084_15)">
<path d="M246.627 66.56C235.707 62.36 225.387 60.26 215.667 60.26C206.067 60.26 198.567 62.3 193.167 66.38C187.767 70.46 185.067 76.1 185.067 83.3C185.067 92.06 189.627 98.84 198.747 103.64C202.827 105.68 207.267 107.6 212.067 109.4C216.987 111.08 221.907 113 226.827 115.16C231.747 117.32 236.247 119.78 240.327 122.54C244.407 125.3 247.707 129.14 250.227 134.06C252.747 138.86 254.007 145.04 254.007 152.6C254.007 160.04 251.907 166.4 247.707 171.68C243.507 176.96 238.407 180.56 232.407 182.48C226.527 184.28 219.627 185.18 211.707 185.18C196.947 185.18 184.347 181.52 173.907 174.2L174.807 172.76C178.767 175.88 183.867 178.46 190.107 180.5C196.467 182.42 202.947 183.38 209.547 183.38C219.267 183.38 227.547 181.16 234.387 176.72C241.347 172.16 244.827 165.5 244.827 156.74C244.827 147.14 240.267 139.64 231.147 134.24C227.067 131.84 222.567 129.62 217.647 127.58C212.847 125.54 207.987 123.44 203.067 121.28C198.147 119 193.647 116.48 189.567 113.72C180.447 107.72 175.887 99.2 175.887 88.16C175.887 79.4 178.827 72.32 184.707 66.92C190.587 61.4 199.407 58.64 211.167 58.64C223.047 58.64 235.107 60.68 247.347 64.76L246.627 66.56ZM279.684 141.08C279.684 155.96 282.264 166.88 287.424 173.84C292.704 180.8 299.604 184.28 308.124 184.28C320.124 184.28 330.804 182.48 340.164 178.88L340.704 180.14C331.104 183.86 320.244 185.72 308.124 185.72C296.124 185.72 286.344 182.12 278.784 174.92C271.224 167.72 267.444 156.62 267.444 141.62C267.444 126.62 271.404 114.98 279.324 106.7C287.244 98.42 297.324 94.28 309.564 94.28C319.404 94.28 327.684 97.22 334.404 103.1C341.124 108.98 344.484 117.68 344.484 129.2C344.484 129.8 344.484 130.4 344.484 131H280.224C279.864 134.24 279.684 137.6 279.684 141.08ZM332.244 129.56C332.124 118.04 329.904 109.52 325.584 104C321.264 98.48 315.684 95.72 308.844 95.72C302.004 95.72 295.884 98.72 290.484 104.72C285.204 110.72 281.844 119 280.404 129.56H332.244ZM357.268 143.24C357.268 127.64 361.048 115.58 368.608 107.06C376.168 98.54 387.508 94.28 402.628 94.28C409.708 94.28 416.848 96.08 424.048 99.68V50.18H436.648V172.22C436.648 175.7 437.308 178.4 438.628 180.32C440.068 182.12 441.508 183.08 442.948 183.2L444.928 183.56H450.508V185H439.528C434.608 185 430.828 183.92 428.188 181.76C425.668 179.6 424.348 177.44 424.228 175.28L424.048 172.22V169.34C421.768 173.54 417.988 177.26 412.708 180.5C407.428 183.74 401.188 185.36 393.988 185.36C369.508 184.76 357.268 170.72 357.268 143.24ZM394.168 183.92C402.208 183.92 409.108 181.76 414.868 177.44C420.628 173.12 423.688 168.86 424.048 164.66V101.3C415.528 97.58 408.208 95.72 402.088 95.72C391.408 95.72 383.368 99.92 377.968 108.32C372.568 116.6 369.868 128.24 369.868 143.24C369.868 170.36 377.968 183.92 394.168 183.92ZM477.446 164.3C477.446 173.78 479.966 179.84 485.006 182.48C487.406 183.68 490.466 184.28 494.186 184.28C501.746 184.28 508.466 181.4 514.346 175.64C520.346 169.88 523.586 164.54 524.066 159.62V95H536.666V172.22C536.666 175.7 537.326 178.4 538.646 180.32C540.086 182.12 541.526 183.08 542.966 183.2L544.946 183.56H550.526V185H539.546C534.626 185 530.846 183.92 528.206 181.76C525.686 179.6 524.366 177.44 524.246 175.28L524.066 172.22V164.48C521.906 169.64 518.066 174.5 512.546 179.06C507.026 183.5 500.966 185.72 494.366 185.72C487.886 185.72 482.546 185.12 478.346 183.92C474.266 182.6 471.326 180.8 469.526 178.52C466.406 174.8 464.846 170 464.846 164.12V95H477.446V164.3Z" fill="white"/>
</g>
<g filter="url(#filter2_f_2084_15)">
<path d="M246.627 66.56C235.707 62.36 225.387 60.26 215.667 60.26C206.067 60.26 198.567 62.3 193.167 66.38C187.767 70.46 185.067 76.1 185.067 83.3C185.067 92.06 189.627 98.84 198.747 103.64C202.827 105.68 207.267 107.6 212.067 109.4C216.987 111.08 221.907 113 226.827 115.16C231.747 117.32 236.247 119.78 240.327 122.54C244.407 125.3 247.707 129.14 250.227 134.06C252.747 138.86 254.007 145.04 254.007 152.6C254.007 160.04 251.907 166.4 247.707 171.68C243.507 176.96 238.407 180.56 232.407 182.48C226.527 184.28 219.627 185.18 211.707 185.18C196.947 185.18 184.347 181.52 173.907 174.2L174.807 172.76C178.767 175.88 183.867 178.46 190.107 180.5C196.467 182.42 202.947 183.38 209.547 183.38C219.267 183.38 227.547 181.16 234.387 176.72C241.347 172.16 244.827 165.5 244.827 156.74C244.827 147.14 240.267 139.64 231.147 134.24C227.067 131.84 222.567 129.62 217.647 127.58C212.847 125.54 207.987 123.44 203.067 121.28C198.147 119 193.647 116.48 189.567 113.72C180.447 107.72 175.887 99.2 175.887 88.16C175.887 79.4 178.827 72.32 184.707 66.92C190.587 61.4 199.407 58.64 211.167 58.64C223.047 58.64 235.107 60.68 247.347 64.76L246.627 66.56ZM279.684 141.08C279.684 155.96 282.264 166.88 287.424 173.84C292.704 180.8 299.604 184.28 308.124 184.28C320.124 184.28 330.804 182.48 340.164 178.88L340.704 180.14C331.104 183.86 320.244 185.72 308.124 185.72C296.124 185.72 286.344 182.12 278.784 174.92C271.224 167.72 267.444 156.62 267.444 141.62C267.444 126.62 271.404 114.98 279.324 106.7C287.244 98.42 297.324 94.28 309.564 94.28C319.404 94.28 327.684 97.22 334.404 103.1C341.124 108.98 344.484 117.68 344.484 129.2C344.484 129.8 344.484 130.4 344.484 131H280.224C279.864 134.24 279.684 137.6 279.684 141.08ZM332.244 129.56C332.124 118.04 329.904 109.52 325.584 104C321.264 98.48 315.684 95.72 308.844 95.72C302.004 95.72 295.884 98.72 290.484 104.72C285.204 110.72 281.844 119 280.404 129.56H332.244ZM357.268 143.24C357.268 127.64 361.048 115.58 368.608 107.06C376.168 98.54 387.508 94.28 402.628 94.28C409.708 94.28 416.848 96.08 424.048 99.68V50.18H436.648V172.22C436.648 175.7 437.308 178.4 438.628 180.32C440.068 182.12 441.508 183.08 442.948 183.2L444.928 183.56H450.508V185H439.528C434.608 185 430.828 183.92 428.188 181.76C425.668 179.6 424.348 177.44 424.228 175.28L424.048 172.22V169.34C421.768 173.54 417.988 177.26 412.708 180.5C407.428 183.74 401.188 185.36 393.988 185.36C369.508 184.76 357.268 170.72 357.268 143.24ZM394.168 183.92C402.208 183.92 409.108 181.76 414.868 177.44C420.628 173.12 423.688 168.86 424.048 164.66V101.3C415.528 97.58 408.208 95.72 402.088 95.72C391.408 95.72 383.368 99.92 377.968 108.32C372.568 116.6 369.868 128.24 369.868 143.24C369.868 170.36 377.968 183.92 394.168 183.92ZM477.446 164.3C477.446 173.78 479.966 179.84 485.006 182.48C487.406 183.68 490.466 184.28 494.186 184.28C501.746 184.28 508.466 181.4 514.346 175.64C520.346 169.88 523.586 164.54 524.066 159.62V95H536.666V172.22C536.666 175.7 537.326 178.4 538.646 180.32C540.086 182.12 541.526 183.08 542.966 183.2L544.946 183.56H550.526V185H539.546C534.626 185 530.846 183.92 528.206 181.76C525.686 179.6 524.366 177.44 524.246 175.28L524.066 172.22V164.48C521.906 169.64 518.066 174.5 512.546 179.06C507.026 183.5 500.966 185.72 494.366 185.72C487.886 185.72 482.546 185.12 478.346 183.92C474.266 182.6 471.326 180.8 469.526 178.52C466.406 174.8 464.846 170 464.846 164.12V95H477.446V164.3Z" fill="white"/>
</g>
<g filter="url(#filter3_f_2084_15)">
<path d="M246.627 66.56C235.707 62.36 225.387 60.26 215.667 60.26C206.067 60.26 198.567 62.3 193.167 66.38C187.767 70.46 185.067 76.1 185.067 83.3C185.067 92.06 189.627 98.84 198.747 103.64C202.827 105.68 207.267 107.6 212.067 109.4C216.987 111.08 221.907 113 226.827 115.16C231.747 117.32 236.247 119.78 240.327 122.54C244.407 125.3 247.707 129.14 250.227 134.06C252.747 138.86 254.007 145.04 254.007 152.6C254.007 160.04 251.907 166.4 247.707 171.68C243.507 176.96 238.407 180.56 232.407 182.48C226.527 184.28 219.627 185.18 211.707 185.18C196.947 185.18 184.347 181.52 173.907 174.2L174.807 172.76C178.767 175.88 183.867 178.46 190.107 180.5C196.467 182.42 202.947 183.38 209.547 183.38C219.267 183.38 227.547 181.16 234.387 176.72C241.347 172.16 244.827 165.5 244.827 156.74C244.827 147.14 240.267 139.64 231.147 134.24C227.067 131.84 222.567 129.62 217.647 127.58C212.847 125.54 207.987 123.44 203.067 121.28C198.147 119 193.647 116.48 189.567 113.72C180.447 107.72 175.887 99.2 175.887 88.16C175.887 79.4 178.827 72.32 184.707 66.92C190.587 61.4 199.407 58.64 211.167 58.64C223.047 58.64 235.107 60.68 247.347 64.76L246.627 66.56ZM279.684 141.08C279.684 155.96 282.264 166.88 287.424 173.84C292.704 180.8 299.604 184.28 308.124 184.28C320.124 184.28 330.804 182.48 340.164 178.88L340.704 180.14C331.104 183.86 320.244 185.72 308.124 185.72C296.124 185.72 286.344 182.12 278.784 174.92C271.224 167.72 267.444 156.62 267.444 141.62C267.444 126.62 271.404 114.98 279.324 106.7C287.244 98.42 297.324 94.28 309.564 94.28C319.404 94.28 327.684 97.22 334.404 103.1C341.124 108.98 344.484 117.68 344.484 129.2C344.484 129.8 344.484 130.4 344.484 131H280.224C279.864 134.24 279.684 137.6 279.684 141.08ZM332.244 129.56C332.124 118.04 329.904 109.52 325.584 104C321.264 98.48 315.684 95.72 308.844 95.72C302.004 95.72 295.884 98.72 290.484 104.72C285.204 110.72 281.844 119 280.404 129.56H332.244ZM357.268 143.24C357.268 127.64 361.048 115.58 368.608 107.06C376.168 98.54 387.508 94.28 402.628 94.28C409.708 94.28 416.848 96.08 424.048 99.68V50.18H436.648V172.22C436.648 175.7 437.308 178.4 438.628 180.32C440.068 182.12 441.508 183.08 442.948 183.2L444.928 183.56H450.508V185H439.528C434.608 185 430.828 183.92 428.188 181.76C425.668 179.6 424.348 177.44 424.228 175.28L424.048 172.22V169.34C421.768 173.54 417.988 177.26 412.708 180.5C407.428 183.74 401.188 185.36 393.988 185.36C369.508 184.76 357.268 170.72 357.268 143.24ZM394.168 183.92C402.208 183.92 409.108 181.76 414.868 177.44C420.628 173.12 423.688 168.86 424.048 164.66V101.3C415.528 97.58 408.208 95.72 402.088 95.72C391.408 95.72 383.368 99.92 377.968 108.32C372.568 116.6 369.868 128.24 369.868 143.24C369.868 170.36 377.968 183.92 394.168 183.92ZM477.446 164.3C477.446 173.78 479.966 179.84 485.006 182.48C487.406 183.68 490.466 184.28 494.186 184.28C501.746 184.28 508.466 181.4 514.346 175.64C520.346 169.88 523.586 164.54 524.066 159.62V95H536.666V172.22C536.666 175.7 537.326 178.4 538.646 180.32C540.086 182.12 541.526 183.08 542.966 183.2L544.946 183.56H550.526V185H539.546C534.626 185 530.846 183.92 528.206 181.76C525.686 179.6 524.366 177.44 524.246 175.28L524.066 172.22V164.48C521.906 169.64 518.066 174.5 512.546 179.06C507.026 183.5 500.966 185.72 494.366 185.72C487.886 185.72 482.546 185.12 478.346 183.92C474.266 182.6 471.326 180.8 469.526 178.52C466.406 174.8 464.846 170 464.846 164.12V95H477.446V164.3Z" fill="white"/>
</g>
<defs>
<filter id="filter0_f_2084_15" x="148.907" y="25.18" width="426.619" height="185.54" filterUnits="userSpaceOnUse" color-interpolation-filters="sRGB">
<feFlood flood-opacity="0" result="BackgroundImageFix"/>
<feBlend mode="normal" in="SourceGraphic" in2="BackgroundImageFix" result="shape"/>
<feGaussianBlur stdDeviation="12.5" result="effect1_foregroundBlur_2084_15"/>
</filter>
<filter id="filter1_f_2084_15" x="158.907" y="35.18" width="406.619" height="165.54" filterUnits="userSpaceOnUse" color-interpolation-filters="sRGB">
<feFlood flood-opacity="0" result="BackgroundImageFix"/>
<feBlend mode="normal" in="SourceGraphic" in2="BackgroundImageFix" result="shape"/>
<feGaussianBlur stdDeviation="7.5" result="effect1_foregroundBlur_2084_15"/>
</filter>
<filter id="filter2_f_2084_15" x="163.907" y="40.18" width="396.619" height="155.54" filterUnits="userSpaceOnUse" color-interpolation-filters="sRGB">
<feFlood flood-opacity="0" result="BackgroundImageFix"/>
<feBlend mode="normal" in="SourceGraphic" in2="BackgroundImageFix" result="shape"/>
<feGaussianBlur stdDeviation="5" result="effect1_foregroundBlur_2084_15"/>
</filter>
<filter id="filter3_f_2084_15" x="123.907" y="0.179993" width="476.619" height="235.54" filterUnits="userSpaceOnUse" color-interpolation-filters="sRGB">
<feFlood flood-opacity="0" result="BackgroundImageFix"/>
<feBlend mode="normal" in="SourceGraphic" in2="BackgroundImageFix" result="shape"/>
<feGaussianBlur stdDeviation="25" result="effect1_foregroundBlur_2084_15"/>
</filter>
</defs>
</svg>
