<svg width="20" height="20" viewBox="0 0 20 20" fill="none" xmlns="http://www.w3.org/2000/svg">
<path d="M10 19.962C4.48583 19.962 0 15.5026 0 10.021C0 4.53942 4.48583 0.0800781 10 0.0800781C15.5142 0.0800781 20 4.53942 20 10.021C20 15.5026 15.5142 19.962 10 19.962ZM10 2.56532C5.865 2.56532 2.5 5.90962 2.5 10.021C2.5 14.1324 5.865 17.4767 10 17.4767C14.135 17.4767 17.5 14.1324 17.5 10.021C17.5 5.90962 14.135 2.56532 10 2.56532ZM10.2083 11.5113L13.095 9.85452C13.6925 9.51156 13.8975 8.7519 13.5525 8.1571C13.2075 7.5623 12.4442 7.35851 11.845 7.70231L10.8333 8.28219V5.46476C10.8333 4.77884 10.2742 4.22214 9.58333 4.22214C8.8925 4.22214 8.33333 4.77884 8.33333 5.46476V10.4352C8.33333 10.8793 8.57167 11.2893 8.95833 11.5113C9.15167 11.6224 9.3675 11.6779 9.58333 11.6779C9.79917 11.6779 10.015 11.6224 10.2083 11.5113Z" fill="#1D281D"/>
</svg>
